<svg xmlns="http://www.w3.org/2000/svg" viewBox="0 0 32 32">
  <defs>
    <linearGradient id="bg" x1="0%" y1="0%" x2="100%" y2="100%">
      <stop offset="0%" style="stop-color:#667eea"/>
      <stop offset="100%" style="stop-color:#764ba2"/>
    </linearGradient>
  </defs>
  <rect width="32" height="32" rx="6" fill="url(#bg)"/>
  <!-- 简化钳子 -->
  <path d="M8,10 C6,14 6,20 10,24 C12,26 16,26 16,24 C14,20 14,16 16,12 C14,8 10,8 8,10 Z" fill="#ff6b6b"/>
  <path d="M24,10 C26,14 26,20 22,24 C20,26 16,26 16,24 C18,20 18,16 16,12 C18,8 22,8 24,10 Z" fill="#ff6b6b"/>
  <circle cx="16" cy="18" r="3" fill="#fff"/>
</svg>